<svg width="427" height="249" viewBox="0 0 427 249" fill="none" xmlns="http://www.w3.org/2000/svg">
<path d="M3.55923 3.3395C115.564 1.26432 228.436 -0.215214 424.294 2.39798M3.29352 3.60851C97.6634 3.05128 192.019 4.6461 423.567 4.1273M426 5.35704C423.734 76.6627 425.315 158.21 422.434 246.982M423.637 4.79982C423.651 73.5115 424.811 139.053 424.154 245.906M425.343 248C299.423 246.693 172.398 245.195 3.15367 245.752M422.336 247.75C276.362 246.213 129.759 246.962 2.39849 246.079M5.16749 244.253C6.18838 186.782 5.55907 125.641 1 5.54919M2.07683 246.77C2.70615 196.505 2.3845 145.048 1.72721 1.12981" stroke="#F4F4F5" stroke-width="2" stroke-linecap="round"/>
</svg>
