<svg width="364" height="247" viewBox="0 0 364 247" fill="none" xmlns="http://www.w3.org/2000/svg">
<path d="M2.19191 2.3395C98.1207 0.264316 194.792 -1.21521 362.539 1.39798M1.96433 2.60851C82.7893 2.05128 163.602 3.6461 361.916 3.1273M364 4.35704C362.06 75.6627 363.413 157.21 360.946 245.982M361.976 3.79982C361.988 72.5115 362.982 138.053 362.419 244.906M363.437 247C255.591 245.693 146.798 244.195 1.84455 244.752M360.862 246.75C235.839 245.213 110.278 245.962 1.19776 245.079M3.56933 243.253C4.4437 185.782 3.90471 124.641 0 4.54919M0.922277 245.77C1.46127 195.505 1.18578 144.048 0.622836 0.129813" stroke="#0B0C0D" stroke-width="2" stroke-linecap="round"/>
</svg>
